<svg xmlns="http://www.w3.org/2000/svg" xmlns:xlink="http://www.w3.org/1999/xlink" viewBox="0 0 919.23 399.63"><defs><style>.cls-1{fill:url(#linear-gradient);}</style><linearGradient id="linear-gradient" y1="-481.94" x2="919.23" y2="-481.94" gradientTransform="matrix(1, 0, 0, -1, 0, -282.12)" gradientUnits="userSpaceOnUse"><stop offset="0" stop-color="#c40b7f"/><stop offset="1" stop-color="#005679"/></linearGradient></defs><title>Middel 1</title><g id="Laag_2" data-name="Laag 2"><g id="Layer_1" data-name="Layer 1"><g id="Laag_2-2" data-name="Laag 2"><g id="Laag_1-2" data-name="Laag 1-2"><path class="cls-1" d="M629.63,200a58.36,58.36,0,0,1-58.27,58.27,55.35,55.35,0,0,1-40.93-17.11A56.48,56.48,0,0,1,513.58,200a57.58,57.58,0,0,1,57.35-57.82h.46A56.54,56.54,0,0,1,612.58,159,55.43,55.43,0,0,1,629.7,200m-224.49,0a58.38,58.38,0,0,1-58.27,58.28,55.37,55.37,0,0,1-41-17.12A56.5,56.5,0,0,1,289.09,200a57.59,57.59,0,0,1,57.35-57.82h.46a56.63,56.63,0,0,1,41.2,16.86A55.39,55.39,0,0,1,405.21,200m513.91,166.8V200q0-52-35.64-87.44T795.81,77.18q-52,0-87.44,35.42a119.43,119.43,0,0,0-24.61,35.24A119.23,119.23,0,0,0,659,112.46q-35.64-35.4-87.68-35.41T483.91,112.6a119.4,119.4,0,0,0-24.6,35.24,119.26,119.26,0,0,0-24.77-35.38q-35.64-35.4-87.67-35.41T259.53,112.6a119.39,119.39,0,0,0-24.34,34.58,120.89,120.89,0,0,0-24.67-35.31,119.25,119.25,0,0,0-87.68-35.64,31.14,31.14,0,0,0-23.35,9.2A32.39,32.39,0,0,0,90.59,109a30.57,30.57,0,0,0,28.81,32.25,28.2,28.2,0,0,0,3.44,0A56.22,56.22,0,0,1,164,158.35a56.18,56.18,0,0,1,17.11,41.2,55.35,55.35,0,0,1-17.11,41,56.56,56.56,0,0,1-41.2,16.85A57.58,57.58,0,0,1,65,200V32.31A31.15,31.15,0,0,0,55.87,8.93,32.46,32.46,0,0,0,32.28,0,31.31,31.31,0,0,0,0,30.34c0,.66,0,1.32,0,2V199.55a118.61,118.61,0,0,0,35.65,87.18,118.54,118.54,0,0,0,87.17,35.67,119.39,119.39,0,0,0,87.41-35.67,121,121,0,0,0,24.54-34.59,120.59,120.59,0,0,0,24.74,35.57q35.4,35.64,87.44,35.64a122.16,122.16,0,0,0,112.44-71.18A120.65,120.65,0,0,0,484,287.71q35.41,35.64,87.45,35.64A122.16,122.16,0,0,0,683.9,252.17a120.46,120.46,0,0,0,24.6,35.54q35.41,35.64,87.44,35.64a31.37,31.37,0,0,0,32.85-29.82q.08-1.51,0-3a31.18,31.18,0,0,0-9.16-23.35,32.39,32.39,0,0,0-23.62-8.9,55.33,55.33,0,0,1-41-17.12,56.51,56.51,0,0,1-16.86-41.19,57.59,57.59,0,0,1,57.36-57.81H796A56.56,56.56,0,0,1,837.2,159,55.35,55.35,0,0,1,854.08,200V366.81A32.44,32.44,0,0,0,863,390.43a33.41,33.41,0,0,0,56.2-20.66q.07-1.51,0-3"/></g></g></g></g></svg>